<svg xmlns="http://www.w3.org/2000/svg" xmlns:xlink="http://www.w3.org/1999/xlink" viewBox="0 0 4000 4000" xmlns:v="https://vecta.io/nano"><style><![CDATA[.B{fill:#16044e}.C{fill:#fff}.D{fill:#e37a33}.E{opacity:.25}.F{opacity:.4}.G{fill:#f8d8c2}]]></style><path d="M0 0h4000v4000H0z" fill="#7dd4ff"/><g class="E B"><ellipse cx="2029.117" cy="3295" rx="1219.436" ry="140.335"/></g><path d="M3030.701 1361.293c-13.895-42.104-14.649-88.92.926-134.069 37.802-109.585 157.283-167.776 266.868-129.974s167.776 157.283 129.974 266.868-157.283 167.776-266.868 129.974c-30.481-10.515-56.969-27.364-78.538-48.546l-99.542-.92 47.18-83.333z" class="C"/><g opacity=".5" class="C"><path d="M3207.602 1127.052c-107.536 12.735-186.382 104.654-185.192 210.544-1.642-7.215-2.961-14.57-3.851-22.084-13.633-115.117 68.636-219.49 183.754-233.122s219.49 68.637 233.123 183.754c.894 7.547 1.352 15.042 1.439 22.474-23.535-103.294-121.702-174.305-229.273-161.566z"/></g><path d="M3230.236 1522.666c-24.919.002-49.924-4.155-74.172-12.52-29.971-10.339-56.804-26.365-79.861-47.681l-92.837-.857c-6.013-.056-11.55-3.286-14.556-8.496s-3.03-11.621-.066-16.853l43.557-76.934c-13.323-45.308-12.222-92.729 3.271-137.642 19.761-57.288 60.649-103.45 115.132-129.985s116.042-30.266 173.328-10.505c118.264 40.796 181.287 170.2 140.491 288.462-19.763 57.29-60.652 103.452-115.134 129.988-31.421 15.304-65.203 23.023-99.153 23.023zm-217.734-94.755l70.718.652c4.397.042 8.608 1.785 11.746 4.866 20.522 20.159 44.805 35.168 72.175 44.609 100.547 34.68 210.586-18.899 245.273-119.456 16.804-48.713 13.633-101.052-8.931-147.38s-61.814-81.094-110.525-97.898-101.055-13.63-147.38 8.933-81.094 61.814-97.896 110.525c-13.882 40.237-14.177 82.842-.852 123.21a16.98 16.98 0 0 1-1.35 13.689l-32.978 58.25z" class="B"/><g opacity=".3" class="B"><path d="M3030.013 1359.062c44.9 60.447 117.166 99.228 198.208 98.087 89.876-1.265 167.586-51.295 208.461-124.52a211.53 211.53 0 0 1-8.213 31.489c-37.802 109.585-157.283 167.776-266.868 129.974-30.481-10.515-56.969-27.363-78.538-48.546l-99.542-.92 47.18-83.333c-.243-.739-.452-1.49-.688-2.231z"/></g><path d="M3161.159 1236.456h0c18.165-18.165 47.615-14.91 65.78 3.255l2.827 2.827 2.827-2.827c18.165-18.165 47.615-21.42 65.78-3.255h0c18.165 18.165 18.165 47.615 0 65.78l-2.827 2.827-57.109 57.109c-4.789 4.789-12.553 4.789-17.342 0l-57.109-57.109-2.827-2.827c-18.165-18.165-18.165-47.616 0-65.78z" fill="#ff0068"/><path d="M1503.695 2698.933s-61.389-100.966-139.364-111.671c-86.007-11.808-176.133 58.417-157.326 179.304 22.019 141.555 215.478 123.267 215.478 123.267l81.212-190.9z" class="D"/><g opacity=".3" class="B"><path d="M1206.426 2762.403c18.824 146.094 216.057 127.438 216.057 127.438l81.22-190.904s-27.239-44.83-68.523-77.926l-42.985 107.182c-29.668 73.971-126.058 95.06-181.949 38.243a147.61 147.61 0 0 1-3.82-4.033"/></g><path d="M1397.861 2907.923c-76.021 0-190.408-27.988-207.637-138.745-9.448-60.737 6.021-115.234 43.56-153.452 34.426-35.054 84.104-51.973 132.856-45.288 85.003 11.67 148.889 115.268 151.567 119.673a16.99 16.99 0 0 1 1.116 15.474l-81.213 190.899c-2.439 5.732-7.825 9.673-14.028 10.259-7.979.75-16.81 1.18-26.221 1.18zm-52.359-304.961c-32.627 0-64.426 13.086-87.488 36.563-29.832 30.371-41.987 74.56-34.226 124.428 16.658 107.09 149.575 110.723 187.207 109.492l73.518-172.803c-15.095-22.134-64.846-88.642-122.493-96.553a121.38 121.38 0 0 0-16.518-1.127z" class="B"/><path d="M1678.64 2026.526s-253.712 525.897-336.443 1002.454l691.684 173.553h-.016l691.683-173.553c-82.734-476.557-336.442-1002.454-336.442-1002.454" class="D"/><path d="M2033.881 3219.514c-1.531 0-3.02-.205-4.436-.586l-691.382-173.472a16.99 16.99 0 0 1-12.6-19.38c82.185-473.418 335.332-1001.65 337.881-1006.929 4.077-8.447 14.236-11.992 22.673-7.92 8.45 4.077 11.992 14.229 7.917 22.676-2.498 5.181-248.132 517.827-332.253 982.456l672.192 168.662 672.19-168.662c-84.126-464.629-329.756-977.275-332.253-982.456-4.075-8.447-.532-18.599 7.917-22.676a16.98 16.98 0 0 1 22.673 7.92c2.549 5.278 255.691 533.511 337.881 1006.929 1.521 8.76-3.975 17.212-12.6 19.38l-691.199 173.428a17.02 17.02 0 0 1-4.601.63z" class="B"/><path d="M2780.818 3258.508H1256.703s-164.713-48.871-112.851-261.12c31.802-130.103 105.721-189.193 181.398-197.56 85.424-9.412 173.129 45.728 205.025 136.098h976.969c36.365-103.06 145.269-160.297 240.631-128.205 62.368 20.962 118.981 80.143 145.747 189.667 51.864 212.249-112.804 261.12-112.804 261.12" class="D"/><path d="M2491.831 2930.513c12.954-36.614 35.341-70.008 64.825-95.489 29.341-25.533 65.661-43.471 104.5-49.867 38.724-6.653 79.938-.91 115.295 16.758 35.586 17.428 64.453 45.798 85.428 77.767 21.117 32.092 35.336 67.621 44.977 103.721 9.661 36.043 15.342 74.057 12.371 112.606-1.486 19.228-5.244 38.516-11.799 57.021-6.514 18.501-15.807 36.165-27.611 51.956-11.795 15.803-25.97 29.733-41.736 41.336-7.885 5.812-16.15 11.065-24.786 15.713-4.318 2.322-8.73 4.494-13.249 6.514-2.273 1.004-4.567 1.971-6.918 2.894l-3.596 1.355c-1.302.465-2.298.824-4.094 1.375-1.465.453-2.951.673-4.412.677l-.229-.004H1256.684h-.049c-1.571 0-3.159-.249-4.596-.673l-.012-.004c-1.788-.535-2.796-.882-4.102-1.331l-3.612-1.314c-2.363-.894-4.669-1.833-6.955-2.816-4.551-1.967-8.991-4.09-13.346-6.359-8.698-4.563-17.081-9.689-25.023-15.481-15.901-11.53-30.235-25.423-42.202-41.234-24.089-31.631-37.537-70.821-40.263-109.496-3.028-38.814 2.661-77.024 12.33-113.214 9.657-36.243 23.864-72 45.169-104.292 21.24-32.104 50.442-60.597 86.367-78.02 35.68-17.73 77.257-23.121 116.059-16.187 38.916 6.722 75.224 24.872 104.264 50.732 28.843 26.031 49.875 60.842 57.242 98.072.882 4.469-2.02 8.808-6.489 9.689-3.628.718-7.167-1.061-8.849-4.143l-.057-.114c-16.717-30.794-37.218-57.923-63.033-79.122-25.35-21.48-56.27-36.443-88.668-41.442-32.349-5.253-65.768-.143-94.733 14.395-29.125 14.424-53.45 38.161-71.71 66.253-18.436 28.08-31.557 60.164-40.475 93.583-9.012 33.394-13.958 67.682-11.399 100.982 1.306 16.607 4.42 32.9 9.718 48.353s12.824 30.023 22.452 43.148c9.628 13.118 21.297 24.811 34.463 34.668 6.579 4.922 13.469 9.497 20.664 13.485 3.592 2.004 7.253 3.869 10.934 5.583 1.845.849 3.698 1.661 5.53 2.412l2.722 1.078 2.306.837-4.645-.677H2780.8l-4.645.677 2.314-.792 2.739-1.033a147.09 147.09 0 0 0 5.571-2.334c3.718-1.661 7.408-3.477 11.036-5.428a175.48 175.48 0 0 0 20.901-13.248c13.297-9.792 25.129-21.444 34.929-34.573 19.717-26.252 30.561-58.528 33.031-92.015 2.616-33.565-2.339-68.053-11.354-101.594-8.938-33.557-22.047-65.874-40.671-94.154-18.525-28.227-43.181-52.087-72.645-66.507-29.296-14.603-63.07-19.362-95.497-13.828-32.472 5.326-63.392 20.497-88.436 42.308-25.178 21.75-44.32 50.295-55.45 81.706l-.012.029c-3.008 8.502-12.338 12.95-20.84 9.934a16.32 16.32 0 0 1-9.94-20.832" class="B"/><path d="M3023.302 3057.332c-35.276 255.128-259.12 255.128-337.797 255.128H1382.297c-78.722 0-302.571 0-337.842-255.128-5.563-40.169-5.469-96.594 22.199-131.054 20.297-25.337 43.545-27.337 51.532-27.19 1.804.045 3.42-.906 4.277-2.478 4.8-8.889 22.105-37.504 48.96-45.442 45.397-13.501 72.543 7.51 80.812 15.448 1.616 1.522 3.992 1.808 5.894.62 8.795-5.661 34.798-19.872 65.458-13.501 63.605 13.26 103.109 88.272 114.373 193.899h1191.835c6.322-59.323 21.583-108.998 45.018-143.51.098-.049.143-.098.098-.143 6.175-9.081 12.93-17.069 20.199-23.913 14.26-13.452 30.664-22.48 49.059-26.333 35.7-7.416 65.078 13.069 68.355 15.448.192.143.429.143.572-.045 2.853-3.281 30.945-33.512 83.285-17.97 30.423 9.032 48.585 44.589 50.197 47.871.098.139.192.233.384.188 2.992-.331 30.562-2.375 54.189 27.052 27.616 34.458 27.71 90.884 22.151 131.053" class="D"/><g opacity=".3" class="C"><path d="M1429.172 2993.823v40.777c-17.477-76.792-53.442-129.172-105.582-140.053-37.892-7.898-68.657 15.648-68.657 15.648s-28.211-34.663-83.53-18.248c-31.872 9.481-50.36 48.095-50.36 48.095s-29.419-4.139-54.405 27.007c-15.26 18.974-22.097 44.634-24.264 70.539-2.792-37.41.865-82.187 24.264-111.316 24.986-31.149 54.405-27.007 54.405-27.007s18.489-38.663 50.36-48.095c55.319-16.424 83.53 18.244 83.53 18.244s30.766-23.542 68.657-15.644c52.14 10.881 88.105 63.261 105.582 140.053"/></g><g opacity=".3" class="C"><path d="M3025.411 3037.873c-2.118-26.048-9-51.756-24.264-70.825-25.035-31.145-54.45-27.007-54.45-27.007s-18.444-38.614-50.361-48.095c-55.271-16.416-83.485 18.248-83.485 18.248s-30.766-23.545-68.653-15.648c-52.238 10.881-88.248 63.454-105.68 140.486v-40.781c17.432-77.032 53.442-129.601 105.68-140.482 37.888-7.897 68.653 15.644 68.653 15.644s28.215-34.667 83.485-18.244c31.917 9.432 50.361 48.095 50.361 48.095s29.415-4.143 54.45 27.007c23.398 29.178 27.06 74.098 24.264 111.602"/></g><path d="M2747.848 3118.118c-2.886 52.01 31.398 96.203 76.579 98.709s84.142-37.627 87.023-89.636-31.398-96.203-76.579-98.709-84.142 37.627-87.023 89.636m164.204-90.137c-2.873 19.934 8.645 38.088 25.729 40.553s33.259-11.701 36.133-31.635-8.649-38.088-25.729-40.553c-17.085-2.461-33.264 11.701-36.133 31.635m-81.962-67.184c-2.873 19.934 8.645 38.088 25.729 40.553s33.259-11.701 36.133-31.635-8.645-38.088-25.725-40.553c-17.089-2.461-33.264 11.702-36.137 31.635m-101.836 15.56c-2.874 19.934 8.644 38.088 25.729 40.553s33.259-11.706 36.133-31.635c2.873-19.934-8.645-38.088-25.725-40.553-17.089-2.461-33.264 11.702-36.137 31.635m-1403.642 141.761c2.885 52.01-31.402 96.203-76.579 98.709s-84.142-37.627-87.028-89.636 31.402-96.203 76.583-98.709 84.138 37.627 87.024 89.636" class="G"/><g class="E B"><path d="M3023.302 3057.332c-35.276 255.128-259.12 255.128-337.797 255.128H1382.297c-78.722 0-302.571 0-337.842-255.128-3.518-25.525-4.8-57.613 1.902-86.42 40.692 242.77 258.504 242.77 335.94 242.77h204.033c54.87 0 79.102-68.943 36.398-103.398-25.17-20.313-50.161-41.251-74.531-62.65-89.844-78.861-171.415-164.093-222.947-247.806 85.424-9.412 173.129 45.728 205.025 136.098h976.969c36.365-103.06 145.269-160.297 240.631-128.205-15.354 24.052-33.088 48.246-52.769 72.347-6.514 7.987-13.211 15.971-20.199 23.913.045.045 0 .094-.098.143-42.549 48.96-92.317 97.354-144.939 143.51-24.378 21.407-49.364 42.341-74.53 62.641-42.712 34.455-18.485 103.406 36.39 103.406h193.773c77.391 0 295.249 0 335.895-242.819 6.704 28.857 5.418 60.945 1.904 86.47"/></g><path d="M1160.407 3027.981c2.873 19.934-8.649 38.088-25.729 40.553s-33.263-11.701-36.137-31.635c-2.869-19.934 8.649-38.088 25.729-40.553s33.263 11.701 36.137 31.635m81.963-67.184c2.873 19.934-8.649 38.088-25.729 40.553s-33.264-11.701-36.137-31.635 8.649-38.088 25.729-40.553 33.263 11.702 36.137 31.635m101.835 15.56c2.873 19.934-8.649 38.088-25.729 40.553s-33.263-11.706-36.137-31.635c-2.873-19.934 8.649-38.088 25.729-40.553s33.264 11.702 36.137 31.635" class="G"/><path d="M1429.859 3048.507c-7.922-36.125-17.281-71.633-32.394-103.496-3.73-7.955-7.881-15.619-12.465-22.852-4.502-7.281-9.51-14.101-14.958-20.305-10.869-12.396-23.546-22.415-37.953-27.852-3.563-1.453-7.281-2.445-11.016-3.387-1.869-.481-3.608-.677-5.416-1.061-1.824-.127-3.624-.478-5.465-.494-7.338-.392-14.893.535-22.333 2.669-3.71 1.102-7.387 2.449-10.967 4.061a80.34 80.34 0 0 0-5.269 2.588c-.861.457-1.706.93-2.531 1.416l-1.224.735-.6.367c.135-.098-.845.563-2.184 1.249a21.19 21.19 0 0 1-15.362 1.404c-2.469-.718-4.775-1.882-6.783-3.375-.816-.547-2.4-2.069-2.196-1.869l-.457-.428c-1.204-1.147-2.6-2.265-4.012-3.347-2.861-2.159-6.032-4-9.318-5.579-13.207-6.412-28.794-7.249-44.308-3.837l-5.828 1.506c-1.853.547-3.163 1.02-4.771 1.669-3.077 1.298-6.118 3.077-9.106 5.143-5.943 4.269-11.554 9.906-16.517 16.313a114.84 114.84 0 0 0-6.963 10.052l-1.559 2.612-.735 1.302-.363.649c-.461.853-1.245 2.11-2.02 3.069-3.175 4.089-8.134 6.971-13.232 7.722-1.22.208-2.649.273-3.673.257l-.547.004c-.355-.008-.739.012-1.131.029-6.355.286-13.248 2.379-19.346 5.824-6.179 3.445-11.767 8.396-16.685 14.297-4.861 5.775-8.763 12.513-11.873 19.913-6.22 14.811-9.203 31.859-10.097 49.201-.865 17.395.18 35.17 2.792 52.789 5.167 35.631 14.722 70.502 30.807 101.851 15.942 31.378 38.618 58.854 66.67 79.694 27.974 20.991 60.927 35.308 95.513 44.116 34.672 8.861 70.853 12.334 107.431 12.869l224.302.122h449.118 449.118l224.261-.155c36.553-.625 72.723-4.237 107.325-13.301 34.521-9 67.372-23.517 95.187-44.708 27.868-21.076 50.332-48.724 66.033-80.24 15.889-31.468 25.268-66.392 30.292-102.055 2.449-17.591 3.457-35.398 2.412-52.748-1.061-17.293-4.188-34.288-10.632-48.936-3.269-7.289-7.199-13.926-12.256-19.578-5.016-5.743-10.661-10.612-16.93-13.799-6.118-3.298-13.191-5.122-19.301-5.179-.351.004-.739-.008-1.008.016l-.428.012c-2.192-.061 4.588.188-4.971-.155-18.472-9.877-9.991-10.036-12.142-9.354l-.314-.6-.681-1.269c-.951-1.726-1.988-3.485-3.069-5.212-2.184-3.461-4.547-6.824-7.061-9.983-5.016-6.33-10.665-11.922-16.652-16.007-6.183-4.314-11.481-6.135-19.95-7.987-15.521-3.359-31.031-2.053-44.145 4.481-3.269 1.62-6.396 3.543-9.199 5.742-1.4 1.086-2.735 2.241-3.898 3.379l-.808.821-.339.367c-1.437 1.314 2.763-2.461-3.188 2.931-15.302 7.616-23.525-3.698-19.807-.278l-.485-.335-1.106-.73c-6.338-4.041-13.812-7.396-21.182-9.53-7.432-2.183-15.003-3.069-22.338-2.714-3.689.208-7.236.698-10.877 1.588-3.742.93-7.44 1.983-11.011 3.416-14.44 5.391-27.027 15.518-37.896 27.892-10.853 12.452-19.791 27.329-27.313 43.177-15.056 31.859-24.403 67.323-32.561 103.423l-.017.07a8.21 8.21 0 0 1-9.82 6.195c-3.812-.861-6.4-4.249-6.4-8.003-.028-38.174 5.657-76.93 20.007-114.051 7.257-18.481 16.86-36.602 30.219-52.752 13.203-16.134 30.876-30.055 51.614-37.834 5.126-2.037 10.477-3.478 15.844-4.665 5.473-1.204 11.248-1.898 16.905-2.077 11.375-.351 22.583 1.392 33.076 4.567 10.546 3.224 20.293 7.685 29.68 13.783l1.808 1.22.951.674c4.163 3.718-3.53-6.996-18.268.204-5.526 4.996-.967.751-1.992 1.645l.865-.906 1.669-1.665a80.93 80.93 0 0 1 6.751-5.747c4.62-3.494 9.485-6.518 14.603-9.053 20.517-10.318 44.463-11.799 65.388-7.183 5.31 1.192 10.142 2.343 16.134 4.653 5.636 2.216 10.812 5.098 15.534 8.343 9.469 6.502 17.166 14.346 23.778 22.644 3.302 4.163 6.326 8.465 9.135 12.922a136.21 136.21 0 0 1 4.049 6.877l.979 1.824.494.959c-1.829 1.135 6.71 1.727-11.155-7.987-8.975-.335-1.612-.172-3.224-.278l1.331-.073c.894-.049 1.677-.041 2.498-.045 12.611.143 24.084 3.473 34.475 8.918 10.416 5.371 19.17 13.003 26.419 21.325 7.403 8.338 13.105 18.011 17.46 27.778 8.612 19.717 12.085 40.186 13.35 60.156 1.196 20.023.033 39.769-2.661 59.229-5.416 38.357-15.574 76.738-33.463 112.218-8.873 17.721-19.721 34.59-32.362 50.071-12.668 15.456-27.21 29.406-43.1 41.5-31.843 24.252-68.874 40.443-106.671 50.291-37.888 9.922-76.767 13.697-114.981 14.354l-224.861.163h-449.118-449.118l-224.816-.126c-38.198-.563-77.077-4.188-115.002-13.881-37.843-9.632-74.955-25.578-106.969-49.589-32.1-23.807-58.274-55.621-76.192-90.979-18.13-35.369-28.492-73.735-34.063-112.067-2.857-19.391-4.069-39.161-3.073-59.148 1.069-19.958 4.359-40.402 12.616-60.188 4.126-9.836 9.648-19.517 16.832-28.08 7.041-8.461 15.615-16.203 25.807-21.901s21.615-9.408 33.978-9.991c.775-.032 1.559-.061 2.375-.053l1.212-.004c-.441-.02-1.286.029-1.93.135-2.779.404-5.575 2.032-7.31 4.273-.404.502-.89 1.257-1.061 1.6l.494-.882.988-1.755 2.037-3.416c2.767-4.498 5.759-8.812 9.008-13.012 6.506-8.354 14.122-16.228 23.386-22.893 4.694-3.269 9.75-6.249 15.305-8.6 2.702-1.134 5.828-2.208 8.453-2.971l7.767-1.996c10.506-2.294 21.57-3.339 32.749-2.445 11.175.816 22.358 3.771 32.668 8.653 5.142 2.473 10.085 5.371 14.75 8.779 2.327 1.73 4.596 3.522 6.812 5.571l.833.759c.641.592-.531-.514-.869-.722-1.069-.8-2.314-1.428-3.657-1.82-2.669-.808-5.89-.571-8.538.788-.816.412-1.302.763-.673.359l.89-.563 1.775-1.09a108.62 108.62 0 0 1 3.567-2.049 116.81 116.81 0 0 1 7.281-3.681c4.93-2.281 10.032-4.22 15.281-5.828 10.497-3.179 21.697-4.926 33.08-4.551 2.837.004 5.681.396 8.518.612 2.792.453 5.714.82 8.391 1.437 5.371 1.171 10.706 2.669 15.832 4.686 10.297 3.914 20.019 9.281 28.639 15.795 8.685 6.449 16.219 14.073 22.925 22.081 13.318 16.183 22.844 34.308 30.104 52.777 14.297 37.112 19.962 75.828 20.178 113.977.024 4.534-3.628 8.228-8.155 8.252a8.21 8.21 0 0 1-8.065-6.44l-.019-.079z" class="B"/><path d="M1706.988 994.346l-294.441 288.833s-134.148-14.783-229.693-121.36c-32.28-35.986-60.184-82.526-77.012-142.465-51.769-184.443 87.04-340.075 279.609-348.254 91.317-3.853 159.82 42.451 209.588 101.157v.049c80.433 94.88 111.949 222.04 111.949 222.04" class="D"/><g class="F C"><path d="M1663.731 879.927c-54.381-84.946-138.996-165.95-262.924-160.721-155.775 6.608-278.756 103.39-305.566 235.542-7.269-154.873 120.601-276.47 290.212-283.649 144.461-6.131 231.786 113.421 278.278 208.828"/></g><g class="E B"><path d="M1706.988 994.346l-294.441 288.833s-134.148-14.783-229.693-121.36c3.326 0 79.289-38.267 81.808-91.987 5.702-122.022 215.576-221.755 215.576-221.755s102.349-.522 114.802-75.771c80.432 94.88 111.948 222.04 111.948 222.04"/></g><path d="M1412.548 1300.147c-.62 0-1.247-.034-1.88-.105-2.583-.283-64.067-7.402-134.478-44.78-65.293-34.661-150.684-102.925-186.702-231.304-24.226-86.367-9.971-171.987 40.142-241.086 56.062-77.302 149.038-124.221 255.09-128.721 104.224-4.397 196.021 52.935 265.544 165.867 51.321 83.362 72.341 166.714 73.211 170.222 2.256 9.102-3.291 18.303-12.39 20.564a16.99 16.99 0 0 1-20.576-12.383c-.796-3.201-82.351-319.866-304.348-310.334-95.622 4.058-179.102 45.874-229.036 114.727-43.892 60.523-56.299 135.803-34.932 211.97 26.189 93.352 82.988 163.97 168.816 209.888 64.817 34.68 122.825 41.548 123.403 41.614 9.309 1.05 16.021 9.448 14.983 18.76-.968 8.68-8.309 15.101-16.847 15.101z" class="B"/><g fill="#f29ea8"><path d="M1573.513 1001.03s-46.005-185.553-178.986-179.908c-107.182 4.547-184.439 91.162-155.632 193.846 37.059 132.103 170.709 146.837 170.709 146.837"/><path d="M1573.52 1001.054l-137.119 134.47-26.79 26.284s-133.67-14.758-170.721-146.857c-28.79-102.664 48.45-189.299 155.657-193.854 37.781-1.588 68.531 12.22 93.178 32.859 62.228 51.928 85.795 147.098 85.795 147.098"/></g><path d="M1573.52 1001.054l-137.119 134.47c-24.505-21.631-46.655-52.115-58.678-94.995-24.513-87.363 27.815-163.122 110.002-186.573 62.228 51.928 85.795 147.098 85.795 147.098" fill="#ee7b8a"/><path d="M1409.626 1178.789a16.84 16.84 0 0 1-1.882-.105c-5.923-.652-145.5-17.617-185.2-159.128-14.119-50.337-5.776-100.286 23.496-140.649 32.566-44.905 86.423-72.151 147.769-74.753 145.295-6.065 194.175 184.663 196.189 192.791 2.256 9.104-3.294 18.313-12.398 20.571-9.097 2.261-18.303-3.289-20.566-12.383h0c-.432-1.721-44.48-172.158-161.785-167.044-50.916 2.161-95.276 24.307-121.711 60.757-23.054 31.789-29.548 71.399-18.289 111.536 33.572 119.68 154.995 134.407 156.216 134.543 9.324 1.028 16.047 9.419 15.02 18.74a16.99 16.99 0 0 1-16.859 15.124z" class="B"/><path d="M2370.023 994.346l294.441 288.833s134.147-14.783 229.697-121.36c32.276-35.986 60.18-82.526 77.008-142.465 51.768-184.443-87.04-340.075-279.609-348.254-91.317-3.853-159.82 42.451-209.588 101.157v.049c-80.433 94.88-111.949 222.04-111.949 222.04" class="D"/><g class="F C"><path d="M2413.28 879.927c54.381-84.946 139-165.95 262.924-160.721 155.779 6.608 278.756 103.39 305.566 235.542 7.269-154.873-120.602-276.47-290.208-283.649-144.465-6.131-231.791 113.421-278.282 208.828"/></g><g class="E B"><path d="M2370.023 994.346l294.441 288.833s134.147-14.783 229.697-121.36c-3.331 0-79.293-38.267-81.812-91.987-5.702-122.022-215.576-221.755-215.576-221.755s-102.349-.522-114.802-75.771c-80.432 94.88-111.948 222.04-111.948 222.04"/></g><path d="M2664.462 1300.147c-8.545 0-15.901-6.433-16.858-15.125-1.028-9.321 5.696-17.712 15.02-18.74.554-.063 58.562-6.931 123.379-41.611 85.828-45.918 142.625-116.536 168.813-209.888 21.37-76.167 8.965-151.445-34.927-211.968-49.934-68.855-133.413-110.671-229.038-114.729-222.642-9.585-303.552 307.129-304.343 310.327-2.256 9.104-11.47 14.646-20.571 12.398-9.104-2.258-14.653-11.467-12.397-20.571.869-3.508 21.887-86.86 73.208-170.222 69.524-112.93 161.345-170.242 265.544-165.867 106.055 4.5 199.033 51.419 255.093 128.723 50.112 69.099 64.365 154.717 40.137 241.084-36.016 128.379-121.406 196.643-186.699 231.304-70.41 37.378-131.895 44.497-134.478 44.78a16.87 16.87 0 0 1-1.883.105z" class="B"/><g fill="#f29ea8"><path d="M2503.498 1001.03s46.001-185.553 178.986-179.908c107.182 4.547 184.443 91.162 155.632 193.846-37.059 132.103-170.709 146.837-170.709 146.837"/><path d="M2503.49 1001.054l137.123 134.47 26.79 26.284s133.67-14.758 170.717-146.857c28.794-102.664-48.45-189.299-155.652-193.854-37.782-1.588-68.531 12.22-93.178 32.859-62.23 51.928-85.8 147.098-85.8 147.098"/></g><path d="M2503.49 1001.054l137.123 134.47c24.505-21.631 46.65-52.115 58.678-94.995 24.513-87.363-27.815-163.122-110.002-186.573-62.229 51.928-85.799 147.098-85.799 147.098" fill="#ee7b8a"/><path d="M2667.385 1178.789c-8.545 0-15.901-6.433-16.858-15.125-1.028-9.321 5.696-17.712 15.02-18.74 4.958-.571 122.813-15.471 156.216-134.543 11.262-40.134 4.768-79.744-18.284-111.531-26.436-36.455-70.798-58.601-121.716-60.762-117.344-5.024-161.355 165.322-161.785 167.044-2.271 9.094-11.499 14.641-20.579 12.371-9.097-2.263-14.641-11.46-12.385-20.559 2.014-8.125 51.113-198.86 196.189-192.791 61.348 2.602 115.208 29.851 147.773 74.756 29.27 40.364 37.612 90.315 23.491 140.647-39.7 141.511-179.277 158.477-185.2 159.128a16.85 16.85 0 0 1-1.882.105z" class="B"/><g class="D"><use xlink:href="#B"/><use xlink:href="#B"/></g><g class="F C"><path d="M2854.929 1756.021c-9.126-259.451-134.719-536.354-198.61-629.332-69.261-100.827-185.867-181.639-331.896-227.657-71.878-45.063 37.741-74.155 18.913-111.994-18.823-37.839-197.034-18.778-206.543-30.374-10.077-12.314 19.015-55.381-16.113-57.662-72.07-4.661-308.844 146.747-427.637 221.094-.049.045-.098.045-.143.094-106.529 45.206-195.234 114.418-271.67 206.498-97.644 117.459-199.275 358.139-207.307 594.346-8.844-254.129 101.537-525.897 207.307-653.102 76.437-92.036 165.142-161.248 271.67-206.454.045-.049.094-.049.143-.139 118.793-74.302 355.429-223.281 427.637-221.045 77.199 2.326 23.958 106.48 23.958 106.48s191.761-47.107 218.428-2.947c28.378 40.883-16.256 80.24-38.643 96.501 146.029 46.014 262.634 126.826 331.896 227.604 68.739 100.016 208.923 412.95 198.61 688.089"/></g><g class="E B"><path d="M2837.909 1882.8c-7.938 32.28-18.872 63.323-33.133 92.648-85.424 175.696-415.328 339.177-766.288 339.128-350.772 0-680.341-163.481-765.716-339.128-15.305-31.419-27.288-64.266-36.414-98.207 120.222 173.129 451.55 324.578 802.461 324.578 347.348.049 675.591-148.171 799.09-319.019"/></g><path d="M1527.285 1700.819c-.433-18.015 1.677-36.39 6.457-54.589 4.914-18.121 12.787-36.067 24.17-52.209 11.354-16.089 25.958-30.545 43.251-41.23 17.187-10.803 36.773-18.003 56.944-21.003 20.17-3.049 40.932-1.873 60.531 3.314 19.558 5.343 37.924 14.566 53.556 26.884 3.91 3.081 7.8 6.163 11.24 9.722l5.294 5.171c1.722 1.751 3.277 3.649 4.869 5.514l4.706 5.62c1.514 1.906 2.849 3.947 4.265 5.914l4.159 5.946c1.363 1.984 2.477 4.118 3.718 6.171 9.51 16.672 16.122 34.48 19.281 52.56 1.665 9.55-4.726 18.644-14.277 20.309-7.783 1.359-15.26-2.637-18.664-9.326l-.225-.453c-13.865-27.325-32.153-50.05-55.074-64.323-11.391-7.13-23.693-12.309-36.443-15.142-12.75-2.824-25.88-3.22-38.647-1.424-25.59 3.604-49.491 16.697-67.237 37.439-18.334 20.456-29.464 48.373-37.239 78.485l-.159.604a17.52 17.52 0 0 1-21.342 12.587c-7.755-2.003-12.946-8.916-13.134-16.541m981.585 3.352c-7.775-30.113-18.905-58.033-37.243-78.485-17.742-20.741-41.647-33.839-67.237-37.439-12.767-1.8-25.896-1.4-38.643 1.42-12.75 2.837-25.052 8.016-36.443 15.142-22.925 14.273-41.214 37.002-55.074 64.327l-.22.429c-4.387 8.644-14.95 12.097-23.595 7.71-7.048-3.575-10.636-11.273-9.35-18.668 3.155-18.085 9.767-35.888 19.276-52.561 1.241-2.053 2.359-4.188 3.722-6.175l4.155-5.947c1.42-1.963 2.751-4.004 4.269-5.91l4.702-5.62c1.592-1.865 3.151-3.767 4.873-5.514l5.293-5.171c3.437-3.559 7.326-6.641 11.236-9.722 15.636-12.318 34.002-21.542 53.561-26.884a149.92 149.92 0 0 1 60.531-3.314c20.166 3 39.753 10.199 56.944 21.003 17.289 10.681 31.892 25.137 43.247 41.23 11.387 16.142 19.256 34.084 24.17 52.209 4.78 18.199 6.894 36.573 6.457 54.589-.233 9.673-8.261 17.326-17.934 17.089-8.008-.196-14.632-5.726-16.542-13.118l-.155-.62z" class="B"/><path d="M1747.822 1888.887c0-126.833 175.839-254.447 290.678-254.447 114.834 0 290.678 127.613 290.678 254.447s-95.603 186.969-290.678 186.969c-195.08 0-290.678-60.136-290.678-186.969" class="G"/><path d="M2038.676 2331.555h-.171c-167.742 0-341.577-37.373-489.485-105.239-141.677-65.005-247.942-153.731-291.545-243.423-84.88-174.434-66.074-375.139-35.349-512.793 35.61-159.553 106.894-317.807 186.033-413.005 80.129-96.467 170.696-165.408 276.836-210.72l4.966-3.108c171.792-107.549 361.025-221.907 431.23-219.951 29.502.891 43.628 14.485 50.281 25.732 12.849 21.724 7.891 51.709.847 74.255 18.618-3.757 43.525-8.257 69.485-11.421 76.885-9.36 119.985-2.161 135.505 22.69 21.277 31.025 14.226 66.211-18.916 99.248 134.895 48.013 244.932 127.017 311.921 224.514 48.713 70.908 120.957 224.746 164.468 394.951 38.176 149.338 66.597 362.463-14.717 529.609h0c-43.63 89.714-149.98 178.454-291.777 243.464-147.964 67.839-321.843 105.197-489.612 105.197zM1702.255 875.642c-.857.564-1.763 1.052-2.712 1.455-101.585 43.135-188.352 109.114-265.261 201.707-131.069 157.671-292.036 589.661-146.262 889.233 77.051 158.494 385.889 329.553 750.488 329.553h.178c364.802.014 673.743-171.035 750.833-329.548 146.481-301.038-72.264-781.394-147.2-890.474-67.439-98.152-182.156-176.65-323.02-221.038-6.116-1.929-10.625-7.139-11.658-13.469s1.592-12.7 6.782-16.47c21.211-15.408 53.926-45.386 34.707-73.049-.205-.295-.403-.598-.588-.908-10.779-17.834-104.16-12.876-199.839 10.618a16.99 16.99 0 0 1-17.366-5.952c-4.126-5.212-4.832-12.351-1.809-18.269 8.398-16.526 22.566-56.069 12.7-72.705-1.255-2.114-5.068-8.547-22.073-9.06l-1.328-.02c-67.717 0-307.893 150.359-410.842 214.81l-5.73 3.586z" class="B"/><path d="M2182.621 1838.921c-17.407 44.594-53.209 55.474-71.6 57.323-46.503 4.673-72.522-29.239-72.522-68.698v-46.157h.531v46.157c0 39.459-26.015 73.371-72.518 68.698-18.391-1.849-54.197-12.73-71.604-57.323l143.592-126.968 144.121 126.968z" class="G"/><g class="E B"><path d="M2178.531 1848.053c-18.399 36.986-50.434 46.491-67.502 48.205-43.875 4.42-69.592-25.578-72.257-62.131-2.706 36.553-28.378 66.551-72.253 62.131-17.064-1.714-49.108-11.22-67.502-48.156 10.555 3.567 20.203 5.371 27.905 6.134 67.882 6.796 107.574-39.504 111.851-96.072 4.232 56.568 43.928 102.868 111.806 96.072 7.7-.763 17.398-2.567 27.952-6.183"/></g><g class="B"><path d="M2055.356 1781.391v32.133l-.049 16.436c-.143 6.338-.857 12.714-2.208 19.023-2.8 12.567-7.975 25.048-16.383 35.839-8.273 10.812-20.191 19.415-33.239 23.484-13.065 4.118-26.468 4.383-38.749 2.433-12.661-1.927-24.419-6.228-35.051-12.636-10.628-6.351-19.827-14.893-26.958-24.611a103.75 103.75 0 0 1-15.416-31.602c-1.261-4.347 1.237-8.893 5.579-10.159 3.869-1.122 7.897.743 9.628 4.224 8.942 17.946 22.623 32.117 39.292 39.451 8.261 3.677 17.322 5.894 25.954 6.277 8.979.212 17.489-1.094 24.623-4.286 7.122-3.147 13.318-7.42 18.358-13.416 5.114-5.889 8.628-13.624 10.448-21.917.89-4.167 1.38-8.485 1.482-12.852l.037-15.689v-32.133a16.33 16.33 0 0 1 16.326-16.326c9.016.002 16.326 7.311 16.326 16.327"/><path d="M2054.826 1781.391v32.133l.037 15.689c.098 4.367.588 8.685 1.478 12.852 1.82 8.293 5.339 16.028 10.452 21.917 5.037 5.996 11.236 10.269 18.358 13.416 7.134 3.192 15.644 4.498 24.623 4.286 8.632-.384 17.693-2.6 25.954-6.277 16.668-7.334 30.349-21.505 39.288-39.451a8.2 8.2 0 0 1 10.991-3.689c3.6 1.788 5.302 5.889 4.22 9.624-3.212 11.044-8.363 21.811-15.42 31.602-7.126 9.718-16.325 18.26-26.953 24.611-10.636 6.408-22.391 10.71-35.055 12.636-12.281 1.951-25.684 1.686-38.745-2.433-13.048-4.069-24.97-12.673-33.239-23.484-8.412-10.791-13.583-23.272-16.383-35.839-1.355-6.31-2.069-12.685-2.212-19.023l-.045-16.436v-32.133a16.33 16.33 0 0 1 16.326-16.326 16.33 16.33 0 0 1 16.325 16.325"/><path d="M2147.714 1750.039c0 60.319-109.214 87.416-109.214 87.416s-109.214-27.096-109.214-87.416c0-30.953 109.234-30.953 109.234-30.953s109.194 0 109.194 30.953"/></g><g opacity=".5" class="C"><path d="M2086.038 1743.989c0 15.624-27.076 22.644-47.01 22.644s-47.005-7.02-47.005-22.644c0-8.016 47.014-8.016 47.014-8.016s47.001 0 47.001 8.016"/></g><g fill="#e94f93"><use xlink:href="#C"/><use xlink:href="#C"/></g><g class="F C"><path d="M2809.531 2527.395c0 9.032-.616 18.158-1.804 27.382-2.094-23.623-6.041-46.683-11.604-69.119-49.152-197.703-227.938-344.307-440.853-344.307-122.977 0-235.256 50.344-241.676 149.596-81.857-79.432-267.817-149.596-390.794-149.596-203.315 0-375.395 133.58-433.343 317.737-9.698 30.659-16.162 62.698-19.109 95.782-1.192-9.22-1.808-18.395-1.808-27.476 0-47.581 7.273-93.452 20.917-136.572 57.948-184.153 230.028-317.684 433.343-317.684 122.977 0 234.399 48.867 316.211 128.303 81.812-79.436 193.283-128.303 316.26-128.303 212.914 0 391.7 146.6 440.853 344.307 8.746 35.223 13.407 72.017 13.407 109.95"/></g><path d="M2039.032 3308.709a17.02 17.02 0 0 1-8.455-2.251c-31.807-18.257-779.021-450.865-779.021-779.077 0-48.433 7.297-96.089 21.69-141.65 29.441-93.54 89.18-177.505 168.208-236.411 81.768-60.947 179.048-93.164 281.326-93.164 117.717 0 229.385 43.203 316.247 122.002 86.794-78.799 198.462-122.002 316.252-122.002 216.982 0 405.042 146.875 457.327 357.173 9.224 37.227 13.899 75.596 13.899 114.053 0 328.213-747.212 760.82-779.019 779.077-2.618 1.498-5.536 2.25-8.454 2.25zM1722.78 2090.12c-191.931 0-359.566 122.9-417.141 305.825-13.35 42.265-20.117 86.479-20.117 131.435 0 290.977 670.005 695.42 753.511 744.673 83.503-49.263 753.508-453.77 753.508-744.673 0-35.708-4.341-71.328-12.9-105.869-48.508-195.112-223.013-331.392-424.36-331.392-114.326 0-222.434 43.862-304.414 123.51-6.587 6.392-17.07 6.401-23.662.005-82.059-79.647-190.172-123.514-304.425-123.514z" class="B"/><path d="M2725.914 2518.363c0 62.368-32.374 129.776-83.093 197.087-182.782 242.721-603.811 484.299-603.811 484.299s-421.789-242.052-604.28-485.014c-50.438-67.07-82.571-134.241-82.571-196.373 0-15.256 27.476-139.898 38.455-193.279 3.567.143 7.465.473 11.599.996 23.77 3.184 55.903 13.93 84.379 45.541 46.585 51.764 65.743 198.846 19.109 282.462 298.575 277.425 765.671 277.948 1064.912 1.661-47.826-83.281-28.713-231.979 18.207-284.123 53.099-59.042 119.218-45.304 119.218-45.304 4.424 1.478 8.844 3.331 13.216 5.563 2.665 1.375 5.277 2.853 7.844 4.514.191 50.533-3.184 166.714-3.184 181.97" fill="#e62b7a"/><path d="M1315.452 2288.294s66.086-13.742 119.222 45.308c53.715 59.691 70.988 246.023-7.024 315.786-73.649 65.854-156.048 24.901-182.565-49.328-62.723-175.573 2.898-289.42 70.367-311.766" class="D"/><g class="F C"><path d="M1405.789 2308.681c-29.615-8.077-52.434-3.326-52.434-3.326-67.453 22.342-133.099 136.192-70.351 311.741 9.412 26.337 25.811 48.442 46.393 63.127-37.888-8.22-69.686-39.12-84.326-80.146-62.703-175.598 2.898-289.445 70.4-311.787.001.001 44.827-9.317 90.318 20.391"/></g><g class="E B"><path d="M1427.657 2649.375c-64.315 57.564-135.384 33.562-169.942-22.913 32.325 9.698 87.346 16.701 79.416-36.569 34.814-7.13 91.856-49.495 76.759-108.267-10.505-40.908-28.941-71.674-87.387-92.509 52.152-9.783 78.575-54.246 54.234-93.268 17.497 6.702 36.414 18.256 53.956 37.745 53.716 59.705 70.972 246.046-7.036 315.781"/></g><g class="B"><path d="M1349.672 2699.417c-9.268 0-18.53-1.153-27.698-3.482-41.79-10.63-76.514-44.336-92.883-90.161-34.304-96.031-35.002-186.206-1.96-253.921 19.304-39.57 49.551-68.608 82.983-79.683.618-.205 1.245-.371 1.882-.503 3.083-.654 76.313-14.971 135.303 50.571 33.445 37.168 53.921 116.25 49.792 192.32-3.513 64.736-24.153 117.114-58.12 147.49-27.485 24.576-58.413 37.369-89.299 37.369zm-29.953-394.634c-24.395 8.506-46.963 31.021-62.063 61.963-16.792 34.419-38.679 109.751 3.423 227.602 12.559 35.161 38.455 60.83 69.268 68.667 28.816 7.319 58.552-1.758 85.984-26.289 27.188-24.312 43.826-68.354 46.846-124.009 3.618-66.699-13.677-137.251-41.126-167.754-42.972-47.758-94.649-41.454-102.332-40.18z"/><path d="M1324.651 2381.17c15.093-3.877 29.786-6.122 45.112-7.228 15.232-1.041 30.807-.686 46.524 2.171 15.632 2.853 31.708 8.538 45.769 19.011 6.955 5.277 13.22 11.701 18.428 18.942 5.151 7.293 8.926 15.334 11.918 23.542 3.09 8.485-1.277 17.868-9.763 20.962s-17.868-1.277-20.962-9.763c-.159-.437-.298-.877-.416-1.318l-.147-.547c-1.531-5.681-3.453-11.199-6.285-16.187-2.902-4.926-6.49-9.457-10.816-13.477-8.738-7.955-20.395-13.73-33.19-17.297-12.803-3.604-26.615-5.302-40.581-5.632-13.881-.335-28.374.559-41.883 2.722l-.388.057a8.16 8.16 0 0 1-9.346-6.767c-.671-4.183 2.006-8.146 6.026-9.191m13.664 200.642c13.877 1.033 28.692.592 42.696-1.175 14.085-1.796 27.872-5.032 40.185-10.408 12.387-5.232 22.954-12.913 30.3-22.403 3.681-4.751 6.363-10.093 8.457-15.668 2.163-5.555 3.061-11.706 3.841-17.819l.11-.886c1.143-8.955 9.33-15.293 18.289-14.154a16.35 16.35 0 0 1 14.154 18.289c-.053.437-.135.902-.225 1.334-1.816 8.547-4.02 17.117-8.004 25.223-3.885 8.061-8.816 15.742-14.934 22.276-12.265 13.109-27.794 21.758-43.389 26.737-15.652 5.147-31.541 7.253-47.177 7.82-15.742.49-30.925-.379-46.671-3.012-4.445-.743-7.444-4.947-6.706-9.391a8.17 8.17 0 0 1 8.62-6.796l.454.033z"/></g><path d="M2763.181 2288.294s-66.086-13.742-119.222 45.308c-53.711 59.691-70.988 246.023 7.024 315.786 73.649 65.854 156.048 24.901 182.565-49.328 62.723-175.573-2.902-289.42-70.367-311.766" class="D"/><g class="F C"><path d="M2672.844 2308.681c29.615-8.077 52.434-3.326 52.434-3.326 67.453 22.342 133.099 136.192 70.351 311.741-9.412 26.337-25.811 48.442-46.393 63.127 37.884-8.22 69.686-39.12 84.33-80.146 62.699-175.598-2.902-289.445-70.404-311.787-.001.001-44.827-9.317-90.318 20.391"/></g><g class="E B"><path d="M2650.978 2649.375c64.315 57.564 135.384 33.562 169.941-22.913-32.325 9.698-87.346 16.701-79.416-36.569-34.814-7.13-91.856-49.495-76.763-108.267 10.506-40.908 28.946-71.674 87.387-92.509-52.148-9.783-78.575-54.246-54.233-93.268-17.493 6.702-36.414 18.256-53.952 37.745-53.72 59.705-70.972 246.046 7.036 315.781"/></g><g class="B"><path d="M2728.959 2699.417c-30.884 0-61.809-12.793-89.297-37.368-33.965-30.371-54.604-82.744-58.118-147.476-4.131-76.069 16.343-155.161 49.79-192.329 58.984-65.552 132.209-51.226 135.303-50.576.637.132 1.265.298 1.882.503 33.43 11.074 63.677 40.117 82.983 79.683 33.04 67.715 32.344 157.895-1.96 253.921-16.372 45.825-51.096 79.531-92.886 90.161-9.164 2.328-18.429 3.481-27.697 3.481zm16.397-395.606c-19.88 0-56.741 5.557-88.772 41.152-27.451 30.503-44.746 101.065-41.123 167.769 3.02 55.649 19.656 99.682 46.843 123.994 27.434 24.531 57.166 33.638 85.981 26.289 30.813-7.837 56.709-33.506 69.27-68.667 42.1-117.847 20.215-193.184 3.42-227.598-15.098-30.947-37.666-53.462-62.061-61.968-1.957-.321-6.769-.971-13.558-.971z"/><path d="M2750.275 2397.069c-13.51-2.159-27.999-3.053-41.883-2.722-13.967.331-27.774 2.029-40.582 5.636-12.795 3.567-24.448 9.342-33.19 17.293-4.322 4.024-7.91 8.555-10.812 13.481-2.837 4.987-4.755 10.501-6.285 16.187l-.143.518c-2.347 8.714-11.318 13.881-20.036 11.534s-13.885-11.318-11.538-20.036a15.41 15.41 0 0 1 .429-1.351c2.988-8.208 6.767-16.252 11.917-23.546 5.204-7.236 11.473-13.665 18.428-18.942 14.061-10.473 30.133-16.158 45.769-19.011 15.718-2.857 31.288-3.212 46.52-2.167 15.326 1.102 30.019 3.347 45.112 7.224a8.16 8.16 0 0 1 5.873 9.934c-1.053 4.106-5.053 6.677-9.155 6.036l-.424-.068zm-7.589 200.898c-15.742 2.633-30.929 3.502-46.671 3.012-15.636-.567-31.521-2.673-47.177-7.82-15.591-4.979-31.125-13.628-43.389-26.737-6.118-6.534-11.049-14.216-14.934-22.28-3.983-8.102-6.188-16.673-8.004-25.219-1.877-8.836 3.763-17.518 12.595-19.395s17.518 3.759 19.395 12.595a14.3 14.3 0 0 1 .22 1.298l.118.918c.779 6.114 1.673 12.265 3.84 17.819 2.098 5.575 4.776 10.918 8.457 15.669 7.343 9.489 17.913 17.17 30.301 22.403 12.313 5.375 26.104 8.612 40.181 10.408 14.012 1.767 28.827 2.208 42.7 1.176l.416-.029a8.16 8.16 0 0 1 8.742 7.53c.316 4.231-2.688 7.954-6.79 8.652m-691.571-407.495c6.22 7.926 12.061 15.681 17.95 23.578l17.37 23.741c11.436 15.901 22.631 31.957 33.582 48.152 2.531 3.743 1.547 8.828-2.196 11.359-3.424 2.314-7.979 1.677-10.669-1.306l-39.553-42.557-20.211-20.778-20.444-20.24-.045-.045c-6.518-6.261-6.726-16.624-.461-23.141s16.619-6.726 23.141-.461c.536.514 1.088 1.131 1.536 1.698"/></g><g class="F C"><path d="M1966.97 2381.808c0 68.547-87.363 124.115-195.132 124.115s-195.132-55.568-195.132-124.115 87.363-124.111 195.132-124.111 195.132 55.563 195.132 124.111"/></g><g class="F C"><path d="M1993.984 2575.79c0 24.974-31.835 45.222-71.102 45.222s-71.106-20.248-71.106-45.222 31.835-45.226 71.106-45.226 71.102 20.248 71.102 45.226"/></g><defs ><path id="B" d="M2804.792 1975.469c-85.44 175.68-415.348 339.156-766.283 339.104-350.784 0-680.378-163.477-765.761-339.104-145.828-299.689 5.547-735.587 148.469-907.516 76.457-92.044 165.17-161.256 271.687-206.487.053-.053.106-.053.159-.106 118.773-74.343 355.429-223.285 427.604-221.069 77.192 2.33 23.986 106.468 23.986 106.468s191.74-47.075 218.425-2.906c28.374 40.842-16.272 80.208-38.675 96.48 146.041 46.018 262.646 126.805 331.916 227.62 88.235 128.441 294.297 607.827 148.473 907.516"/><path id="C" d="M2809.523 2527.379c0 322.153-770.491 764.349-770.491 764.349s-770.491-442.196-770.491-764.349c0-47.548 7.281-93.423 20.901-136.531 57.96-184.157 230.028-317.708 433.339-317.708 122.993 0 234.403 48.863 316.252 128.307 81.775-79.444 193.259-128.307 316.247-128.307 212.923 0 391.692 146.583 440.845 344.287 8.733 35.242 13.398 72.015 13.398 109.952"/></defs></svg>